<svg width="75" height="75" viewBox="0 0 75 75" fill="none" xmlns="http://www.w3.org/2000/svg">
<rect width="75" height="75" rx="37.5" fill="white"/>
<path d="M10 66V59.7778H16.2222V16.2222C16.2222 14.5111 16.8315 13.0463 18.05 11.8278C19.2685 10.6093 20.7333 10 22.4444 10H53.5556C55.2667 10 56.7315 10.6093 57.95 11.8278C59.1685 13.0463 59.7778 14.5111 59.7778 16.2222V59.7778H66V66H10ZM53.5556 59.7778V16.2222H22.4444V59.7778H53.5556ZM44.2222 41.1111C45.1037 41.1111 45.8426 40.813 46.4389 40.2167C47.0352 39.6204 47.3333 38.8815 47.3333 38C47.3333 37.1185 47.0352 36.3796 46.4389 35.7833C45.8426 35.187 45.1037 34.8889 44.2222 34.8889C43.3407 34.8889 42.6019 35.187 42.0056 35.7833C41.4093 36.3796 41.1111 37.1185 41.1111 38C41.1111 38.8815 41.4093 39.6204 42.0056 40.2167C42.6019 40.813 43.3407 41.1111 44.2222 41.1111Z" fill="#1F3777"/>
</svg>
