<svg width="75" height="75" viewBox="0 0 75 75" fill="none" xmlns="http://www.w3.org/2000/svg">
<rect width="75" height="75" rx="37.5" fill="white"/>
<path d="M10 66V49.2C10 46.8667 10.9074 44.8833 12.7222 43.25C14.537 41.6167 16.7407 40.8 19.3333 40.8H25.5556C28.1481 40.8 30.3519 39.9833 32.1667 38.35C33.9815 36.7167 34.8889 34.7333 34.8889 32.4C34.8889 31.6067 34.5907 30.9417 33.9944 30.405C33.3981 29.8683 32.6593 29.6 31.7778 29.6C30.0667 29.6 28.6019 29.0517 27.3833 27.955C26.1648 26.8583 25.5556 25.54 25.5556 24V10H31.7778V24C34.3704 24 36.5741 24.8167 38.3889 26.45C40.2037 28.0833 41.1111 30.0667 41.1111 32.4C41.1111 36.2733 39.5944 39.575 36.5611 42.305C33.5278 45.035 29.8593 46.4 25.5556 46.4H19.3333C18.4519 46.4 17.713 46.6683 17.1167 47.205C16.5204 47.7417 16.2222 48.4067 16.2222 49.2V66H10ZM28.6667 66H22.4444V60.4C22.4444 58.0667 23.3519 56.0833 25.1667 54.45C26.9815 52.8167 29.1852 52 31.7778 52H44.2222C48.5259 52 52.1944 50.635 55.2278 47.905C58.2611 45.175 59.7778 41.8733 59.7778 38V35.2C59.7778 31.3267 58.2611 28.025 55.2278 25.295C52.1944 22.565 48.5259 21.2 44.2222 21.2C42.5111 21.2 41.0463 20.6517 39.8278 19.555C38.6093 18.4583 38 17.14 38 15.6V10H44.2222V15.6C50.2889 15.6 55.4352 17.5017 59.6611 21.305C63.887 25.1083 66 29.74 66 35.2V38C66 43.46 63.887 48.0917 59.6611 51.895C55.4352 55.6983 50.2889 57.6 44.2222 57.6H31.7778C30.8963 57.6 30.1574 57.8683 29.5611 58.405C28.9648 58.9417 28.6667 59.6067 28.6667 60.4V66Z" fill="#1F3777"/>
</svg>
