<svg width="60" height="60" viewBox="0 0 60 60" fill="none" xmlns="http://www.w3.org/2000/svg">
<path d="M43.2152 0H16.7848C7.5148 0 0 7.5148 0 16.7848V43.2152C0 52.4852 7.5148 60 16.7848 60H43.2152C52.4852 60 60 52.4852 60 43.2152V16.7848C60 7.5148 52.4852 0 43.2152 0Z" fill="#EA4335"/>
<path d="M14.5227 47H20.4091V28.9743L12 21.0219V43.819C12 45.5792 13.131 47 14.5227 47Z" fill="white"/>
<path d="M40.5909 47H46.4773C47.8734 47 49 45.5738 49 43.819V21.0219L40.5909 28.9743" fill="white"/>
<path d="M40.5909 15.19V28.9743L49 21.0219V16.7805C49 12.8467 45.4388 10.6041 42.9455 12.9633" fill="white"/>
<path d="M20.4091 28.9744V15.1901L30.5 24.733L40.5909 15.1901V28.9744L30.5 38.5174" fill="white"/>
<path d="M12 16.7805V21.0219L20.4091 28.9743V15.19L18.0546 12.9633C15.5571 10.6041 12 12.8467 12 16.7805Z" fill="white"/>
</svg>
