<svg width="60" height="60" viewBox="0 0 60 60" fill="none" xmlns="http://www.w3.org/2000/svg">
<path d="M50.5054 0H9.49461C4.25089 0 0 4.25087 0 9.49459V50.5054C0 55.7491 4.25089 60 9.49461 60H50.5054C55.7491 60 60 55.7491 60 50.5054V9.49459C60 4.25087 55.7491 0 50.5054 0Z" fill="url(#paint0_linear_42_371)"/>
<path d="M18.8941 47.4338C16.091 47.4338 14.3566 47.0757 13.1704 45.8C11.257 43.7355 11.3241 39.847 11.464 31.3148C11.5255 27.7228 11.5983 23.2581 11.5423 17.7918C11.5423 15.0895 13.5173 12.8963 15.9399 12.8963H15.9791C24.9422 13.3551 31.354 13.0138 36.0369 12.7676C42.0347 12.4487 45.0504 12.2864 46.8295 14.2111C48.743 16.2756 48.6759 20.1697 48.536 28.6964C48.4744 32.2883 48.4017 36.753 48.4576 42.2193C48.4576 44.9216 46.4827 47.1148 44.06 47.1148H44.0209C35.0578 46.6561 28.646 46.9974 23.9631 47.2435C21.9657 47.3498 20.2928 47.4394 18.8941 47.4394V47.4338ZM15.9176 14.8097C14.4517 14.8209 13.2656 16.1469 13.2656 17.7806C13.3215 23.2637 13.2488 27.7508 13.1872 31.3539C13.0586 39.0693 12.997 42.9466 14.3734 44.4293C15.6154 45.7721 18.5528 45.6154 23.8847 45.3301C28.5957 45.0783 35.0466 44.737 44.0824 45.1958C45.5483 45.1846 46.7344 43.8586 46.7344 42.2249C46.6785 36.7419 46.7512 32.2547 46.8127 28.6516C46.9414 20.9362 47.003 17.0589 45.6266 15.5762C44.3845 14.2335 41.4472 14.3901 36.1152 14.6755C31.4043 14.9272 24.9534 15.2685 15.9176 14.8097Z" fill="white"/>
<path d="M30.056 38.2973C26.3913 38.2973 22.6315 35.7572 22.5532 30.9008C22.6371 26.0164 26.3913 23.4763 30.056 23.4763C33.7207 23.4763 37.4804 26.0164 37.5588 30.8728V30.9008C37.4748 35.7572 33.7207 38.2973 30.0504 38.2973H30.056ZM30.056 25.1996C27.3201 25.1996 24.3435 26.9843 24.2764 30.9008C24.3435 34.7893 27.3201 36.574 30.056 36.574C32.7919 36.574 35.7628 34.7948 35.8355 30.8896C35.7628 26.9843 32.7919 25.2051 30.056 25.2051V25.1996Z" fill="white"/>
<path d="M41.106 24.3659C39.3604 24.3659 37.5923 23.1742 37.5811 20.8971C37.5923 18.6143 39.3604 17.4226 41.106 17.4226C42.8516 17.4226 44.6196 18.6143 44.6308 20.8915C44.6196 23.1742 42.8516 24.3659 41.106 24.3659ZM41.106 19.1458C40.4402 19.1458 39.3156 19.5151 39.31 20.8971C39.3156 22.2734 40.4458 22.6427 41.106 22.6427C41.7662 22.6427 42.8963 22.2734 42.9019 20.8971C42.8963 19.6102 41.9284 19.1514 41.106 19.1514V19.1458Z" fill="white"/>
<defs>
<linearGradient id="paint0_linear_42_371" x1="23.426" y1="63.8213" x2="36.1768" y2="-1.77359" gradientUnits="userSpaceOnUse">
<stop stop-color="#FFDA72"/>
<stop offset="0.2" stop-color="#F86639"/>
<stop offset="0.34" stop-color="#E92954"/>
<stop offset="0.47" stop-color="#C51883"/>
<stop offset="0.53" stop-color="#BA1B90"/>
<stop offset="0.64" stop-color="#A024B0"/>
<stop offset="0.68" stop-color="#9527B2"/>
<stop offset="0.75" stop-color="#7A32BA"/>
<stop offset="0.83" stop-color="#5541C5"/>
</linearGradient>
</defs>
</svg>
