<svg width="75" height="75" viewBox="0 0 75 75" fill="none" xmlns="http://www.w3.org/2000/svg">
<rect width="75" height="75" rx="37.5" fill="white"/>
<path d="M10 62V53.2889C10 51.5778 10.3623 49.9704 11.0868 48.4667C11.8113 46.963 12.8128 45.8222 14.0913 45.0444C16.2648 43.6963 18.7154 42.5556 21.4429 41.6222C24.1705 40.6889 27.175 40.2222 30.4566 40.2222C33.7382 40.2222 36.7428 40.6889 39.4703 41.6222C42.1979 42.5556 44.6484 43.6963 46.8219 45.0444C48.1005 45.8222 49.102 46.963 49.8265 48.4667C50.551 49.9704 50.9132 51.5778 50.9132 53.2889V62H10ZM15.1142 55.7778H45.7991V53.2889C45.7991 52.7185 45.6819 52.2 45.4475 51.7333C45.2131 51.2667 44.9041 50.9037 44.5205 50.6444C42.9863 49.7111 41.0152 48.7778 38.6073 47.8444C36.1994 46.9111 33.4825 46.4444 30.4566 46.4444C27.4307 46.4444 24.7139 46.9111 22.3059 47.8444C19.898 48.7778 17.9269 49.7111 16.3927 50.6444C16.0091 50.9037 15.7002 51.2667 15.4658 51.7333C15.2314 52.2 15.1142 52.7185 15.1142 53.2889V55.7778ZM30.4566 37.1111C27.6438 37.1111 25.2359 35.8926 23.2329 33.4556C21.2298 31.0185 20.2283 28.0889 20.2283 24.6667H19.589C19.2055 24.6667 18.8965 24.5241 18.6621 24.2389C18.4277 23.9537 18.3105 23.5778 18.3105 23.1111C18.3105 22.6444 18.4277 22.2685 18.6621 21.9833C18.8965 21.6981 19.2055 21.5556 19.589 21.5556H20.2283C20.2283 19.2222 20.6971 17.1222 21.6347 15.2556C22.5723 13.3889 23.8082 11.9111 25.3425 10.8222V13.7778C25.3425 14.2444 25.4597 14.6204 25.6941 14.9056C25.9285 15.1907 26.2374 15.3333 26.621 15.3333C27.0046 15.3333 27.3135 15.1907 27.5479 14.9056C27.7823 14.6204 27.8995 14.2444 27.8995 13.7778V9.57778C28.2831 9.42222 28.688 9.30556 29.1142 9.22778C29.5403 9.15 29.9878 9.11111 30.4566 9.11111C30.9254 9.11111 31.3729 9.15 31.7991 9.22778C32.2253 9.30556 32.6301 9.42222 33.0137 9.57778V13.7778C33.0137 14.2444 33.1309 14.6204 33.3653 14.9056C33.5997 15.1907 33.9087 15.3333 34.2922 15.3333C34.6758 15.3333 34.9848 15.1907 35.2192 14.9056C35.4536 14.6204 35.5708 14.2444 35.5708 13.7778V10.8222C37.105 11.9111 38.3409 13.3889 39.2785 15.2556C40.2161 17.1222 40.6849 19.2222 40.6849 21.5556H41.3242C41.7078 21.5556 42.0167 21.6981 42.2511 21.9833C42.4855 22.2685 42.6027 22.6444 42.6027 23.1111C42.6027 23.5778 42.4855 23.9537 42.2511 24.2389C42.0167 24.5241 41.7078 24.6667 41.3242 24.6667H40.6849C40.6849 28.0889 39.6834 31.0185 37.6804 33.4556C35.6773 35.8926 33.2694 37.1111 30.4566 37.1111ZM30.4566 30.8889C31.863 30.8889 33.067 30.2796 34.0685 29.0611C35.07 27.8426 35.5708 26.3778 35.5708 24.6667H25.3425C25.3425 26.3778 25.8432 27.8426 26.8447 29.0611C27.8463 30.2796 29.0502 30.8889 30.4566 30.8889ZM49.6347 43.3333L49.2511 41C48.9954 40.8963 48.7504 40.7796 48.516 40.65C48.2816 40.5204 48.0578 40.3259 47.8448 40.0667L46.0548 40.8444L44.7763 38.0444L46.1826 36.4889V34.6222L44.7763 33.0667L46.0548 30.2667L47.8448 31.0444C48.0152 30.837 48.2283 30.6556 48.484 30.5C48.7397 30.3444 48.9954 30.2148 49.2511 30.1111L49.6347 27.7778H52.1918L52.5753 30.1111C52.8311 30.2148 53.0868 30.3444 53.3425 30.5C53.5982 30.6556 53.8113 30.837 53.9817 31.0444L55.7717 30.2667L57.0502 33.0667L55.6438 34.6222V36.4889L57.0502 38.0444L55.7717 40.8444L53.9817 40.0667C53.7686 40.3259 53.5449 40.5204 53.3105 40.65C53.0761 40.7796 52.8311 40.8963 52.5753 41L52.1918 43.3333H49.6347ZM50.9132 37.8889C51.4247 37.8889 51.8721 37.6556 52.2557 37.1889C52.6393 36.7222 52.8311 36.1778 52.8311 35.5556C52.8311 34.9333 52.6393 34.3889 52.2557 33.9222C51.8721 33.4556 51.4247 33.2222 50.9132 33.2222C50.4018 33.2222 49.9543 33.4556 49.5708 33.9222C49.1872 34.3889 48.9954 34.9333 48.9954 35.5556C48.9954 36.1778 49.1872 36.7222 49.5708 37.1889C49.9543 37.6556 50.4018 37.8889 50.9132 37.8889ZM55.516 27.7778L55.0046 24.5111C54.621 24.3556 54.2694 24.1611 53.9498 23.9278C53.6301 23.6944 53.3425 23.4222 53.0868 23.1111L50.4018 24.2L48.6119 20.4667L50.7854 18.1333C50.7002 17.8741 50.6575 17.6667 50.6575 17.5111V16.2667C50.6575 16.1111 50.7002 15.9037 50.7854 15.6444L48.6119 13.3111L50.4018 9.57778L53.0868 10.6667C53.3425 10.3556 53.6301 10.0833 53.9498 9.85C54.2694 9.61667 54.621 9.42222 55.0046 9.26667L55.516 6H59.0959L59.6073 9.26667C59.9909 9.42222 60.3425 9.61667 60.6621 9.85C60.9817 10.0833 61.2694 10.3556 61.5251 10.6667L64.21 9.57778L66 13.3111L63.8265 15.6444C63.9117 15.9037 63.9543 16.1111 63.9543 16.2667V17.5111C63.9543 17.6667 63.9117 17.8741 63.8265 18.1333L66 20.4667L64.21 24.2L61.5251 23.1111C61.2694 23.4222 60.9817 23.6944 60.6621 23.9278C60.3425 24.1611 59.9909 24.3556 59.6073 24.5111L59.0959 27.7778H55.516ZM57.3059 20.7778C58.2009 20.7778 58.9574 20.4019 59.5753 19.65C60.1933 18.8981 60.5023 17.9778 60.5023 16.8889C60.5023 15.8 60.1933 14.8796 59.5753 14.1278C58.9574 13.3759 58.2009 13 57.3059 13C56.411 13 55.6545 13.3759 55.0365 14.1278C54.4186 14.8796 54.1096 15.8 54.1096 16.8889C54.1096 17.9778 54.4186 18.8981 55.0365 19.65C55.6545 20.4019 56.411 20.7778 57.3059 20.7778Z" fill="#1F3777"/>
</svg>
