<svg width="75" height="75" viewBox="0 0 75 75" fill="none" xmlns="http://www.w3.org/2000/svg">
<rect width="75" height="75" rx="37.5" fill="white"/>
<path d="M10 66V59.7778H15.6V10H60.4V59.7778H66V66H10ZM21.2 59.7778H32.26C31.8867 56.1481 30.8133 52.4796 29.04 48.7722C27.2667 45.0648 24.6533 42.6667 21.2 41.5778V59.7778ZM21.2 16.2222V34.4222C24.6533 33.3333 27.2667 30.9352 29.04 27.2278C30.8133 23.5204 31.8867 19.8519 32.26 16.2222H21.2ZM27.43 38C30.6033 40.3333 33.0533 43.5222 34.78 47.5667C36.5067 51.6111 37.5333 55.6815 37.86 59.7778H38.14C38.4667 55.6815 39.4933 51.6111 41.22 47.5667C42.9467 43.5222 45.3967 40.3333 48.57 38C45.3967 35.6667 42.9467 32.4778 41.22 28.4333C39.4933 24.3889 38.4667 20.3185 38.14 16.2222H37.86C37.5333 20.3185 36.5067 24.3889 34.78 28.4333C33.0533 32.4778 30.6033 35.6667 27.43 38ZM54.8 16.2222H43.74C44.1133 19.8519 45.1867 23.5204 46.96 27.2278C48.7333 30.9352 51.3467 33.3333 54.8 34.4222V16.2222ZM54.8 59.7778V41.5778C51.3467 42.6667 48.745 45.0648 46.995 48.7722C45.245 52.4796 44.1833 56.1481 43.81 59.7778H54.8Z" fill="#1F3777"/>
</svg>
