<svg width="75" height="75" viewBox="0 0 75 75" fill="none" xmlns="http://www.w3.org/2000/svg">
<rect width="75" height="75" rx="37.5" fill="white"/>
<path d="M21.7895 66C19.5789 66 17.393 65.4292 15.2316 64.2877C13.0702 63.1462 11.3263 61.6415 10 59.7736C11.2772 59.7736 12.5789 59.2418 13.9053 58.1781C15.2316 57.1144 15.8947 55.5708 15.8947 53.5473C15.8947 50.9529 16.7544 48.7478 18.4737 46.9317C20.193 45.1157 22.2807 44.2077 24.7368 44.2077C27.193 44.2077 29.2807 45.1157 31 46.9317C32.7193 48.7478 33.5789 50.9529 33.5789 53.5473C33.5789 56.9718 32.4246 59.9033 30.1158 62.342C27.807 64.7807 25.0316 66 21.7895 66ZM21.7895 59.7736C23.4105 59.7736 24.7982 59.164 25.9526 57.9446C27.107 56.7253 27.6842 55.2595 27.6842 53.5473C27.6842 52.6652 27.4018 51.9258 26.8368 51.3291C26.2719 50.7324 25.5719 50.4341 24.7368 50.4341C23.9018 50.4341 23.2018 50.7324 22.6368 51.3291C22.0719 51.9258 21.7895 52.6652 21.7895 53.5473C21.7895 54.7406 21.6544 55.8303 21.3842 56.8161C21.114 57.8019 20.7579 58.7359 20.3158 59.618C20.5614 59.7217 20.807 59.7736 21.0526 59.7736H21.7895ZM38.7368 47.3209L30.6316 38.7596L57.0105 10.8966C57.5509 10.3258 58.2263 10.0275 59.0368 10.0016C59.8474 9.97561 60.5474 10.274 61.1368 10.8966L65.1158 15.0994C65.7053 15.722 66 16.4484 66 17.2786C66 18.1088 65.7053 18.8352 65.1158 19.4579L38.7368 47.3209Z" fill="#1F3777"/>
</svg>
