<svg width="75" height="75" viewBox="0 0 75 75" fill="none" xmlns="http://www.w3.org/2000/svg">
<rect width="75" height="75" rx="37.5" fill="white"/>
<path d="M50.2907 64.4196C49.6938 64.9235 49.0019 65.3129 48.2151 65.5877C47.4283 65.8626 46.6008 66 45.7326 66C44.8643 66 44.0233 65.8626 43.2093 65.5877C42.3953 65.3129 41.6899 64.9235 41.093 64.4196L36.5349 60.5718C35.938 60.0679 35.4903 59.5067 35.1919 58.8883C34.8934 58.2699 34.7171 57.6401 34.6628 56.9988C34.6085 56.3575 34.7035 55.7162 34.9477 55.0748C35.1919 54.4335 35.5581 53.838 36.0465 53.2883L36.5349 52.7386L10 20.719L22.6977 10L64.1279 44.9742C64.7248 45.4781 65.186 46.0622 65.5116 46.7264C65.8372 47.3906 66 48.0892 66 48.8221C66 49.555 65.8372 50.265 65.5116 50.9521C65.186 51.6393 64.7248 52.2348 64.1279 52.7386L50.2907 64.4196ZM41.1744 48.8221L50.3721 41.1264L22.6977 17.7644L18.4651 21.3374L41.1744 48.8221ZM45.7326 60.5031L59.4884 48.8908L54.9302 44.9742L41.093 56.6552L45.7326 60.5031Z" fill="#1F3777"/>
</svg>
