<svg width="51" height="51" viewBox="0 0 51 51" fill="none" xmlns="http://www.w3.org/2000/svg">
<path d="M25.2496 36.7423L12.1315 49.9226V1.08577L25.2496 14.266L25.2669 14.2834L25.2842 14.266L38.4023 1.08577C39.3396 0.152399 40.8629 0.152399 41.8002 1.08577L49.7895 9.04113C50.7268 9.97444 50.7268 11.4911 49.7895 12.4244L36.5531 25.4868L36.5354 25.5042L36.5531 25.5216L49.7895 38.584C50.7268 39.5173 50.7268 41.0339 49.7895 41.9672L41.8002 49.9226C40.8629 50.856 39.3396 50.856 38.4023 49.9226L25.2842 36.7423L25.2669 36.7249L25.2496 36.7423ZM12.1314 49.9227C11.1941 50.856 9.67085 50.8559 8.73353 49.9226L0.744267 41.9672C-0.193025 41.0339 -0.193025 39.5173 0.744267 38.584L13.9807 25.5216L13.9983 25.5042L13.9807 25.4868L0.744267 12.4244C-0.193025 11.4911 -0.193025 9.97444 0.744267 9.04113L8.73353 1.08577C9.67085 0.152425 11.1941 0.152399 12.1314 1.08569V49.9227Z" fill="#2B2E3A" stroke="#2B2E3A" stroke-width="0.0488281"/>
</svg>
