<svg width="50" height="51" viewBox="0 0 50 51" fill="none" xmlns="http://www.w3.org/2000/svg">
<path d="M33.9282 15.3257C32.4662 6.32184 29.0179 0 25.005 0C20.9921 0 17.5439 6.32184 16.0819 15.3257H33.9282ZM15.3257 25.005C15.3257 27.2434 15.4467 29.391 15.6584 31.458H34.3416C34.5533 29.391 34.6743 27.2434 34.6743 25.005C34.6743 22.7667 34.5533 20.6191 34.3416 18.5521H15.6584C15.4467 20.6191 15.3257 22.7667 15.3257 25.005ZM48.0641 15.3257C45.1805 8.47953 39.3426 3.18613 32.1335 1.0486C34.5937 4.45654 36.2876 9.58863 37.1748 15.3257H48.0641ZM17.8665 1.0486C10.6675 3.18613 4.81952 8.47953 1.94596 15.3257H12.8352C13.7124 9.58863 15.4063 4.45654 17.8665 1.0486ZM49.143 18.5521H37.5781C37.7899 20.6695 37.9109 22.8373 37.9109 25.005C37.9109 27.1728 37.7899 29.3406 37.5781 31.458H49.1329C49.6874 29.391 50 27.2434 50 25.005C50 22.7667 49.6874 20.6191 49.143 18.5521ZM12.0992 25.005C12.0992 22.8373 12.2202 20.6695 12.4319 18.5521H0.86711C0.322646 20.6191 0 22.7667 0 25.005C0 27.2434 0.322646 29.391 0.86711 31.458H12.4219C12.2202 29.3406 12.0992 27.1728 12.0992 25.005ZM16.0819 34.6844C17.5439 43.6882 20.9921 50.0101 25.005 50.0101C29.0179 50.0101 32.4662 43.6882 33.9282 34.6844H16.0819ZM32.1436 48.9615C39.3426 46.824 45.1906 41.5305 48.0742 34.6844H37.1849C36.2976 40.4215 34.6037 45.5535 32.1436 48.9615ZM1.94596 34.6844C4.8296 41.5305 10.6675 46.824 17.8766 48.9615C15.4164 45.5535 13.7225 40.4215 12.8352 34.6844H1.94596Z" fill="black"/>
</svg>
