<svg width="38" height="50" viewBox="0 0 38 50" fill="none" xmlns="http://www.w3.org/2000/svg">
<path d="M17.7637 25.0098C17.2754 23.4473 17.2852 20.4297 17.5684 20.4297C18.3887 20.4297 18.3105 24.0332 17.7637 25.0098ZM17.5977 29.6191C16.8457 31.5918 15.9082 33.8477 14.8242 35.7422C16.6113 35.0586 18.6328 34.0625 20.9668 33.6035C19.7266 32.666 18.5352 31.3184 17.5977 29.6191ZM8.4082 41.8066C8.4082 41.8848 9.69727 41.2793 11.8164 37.8809C11.1621 38.4961 8.97461 40.2734 8.4082 41.8066ZM24.2188 15.625H37.5V47.6562C37.5 48.9551 36.4551 50 35.1562 50H2.34375C1.04492 50 0 48.9551 0 47.6562V2.34375C0 1.04492 1.04492 0 2.34375 0H21.875V13.2812C21.875 14.5703 22.9297 15.625 24.2188 15.625ZM23.4375 32.4023C21.4844 31.2109 20.1855 29.5703 19.2676 27.1484C19.707 25.3418 20.4004 22.5977 19.873 20.8789C19.4141 18.0078 15.7324 18.291 15.2051 20.2148C14.7168 22.002 15.166 24.5215 15.9961 27.7344C14.8633 30.4297 13.1934 34.043 12.0117 36.1133C12.002 36.1133 12.002 36.123 11.9922 36.123C9.3457 37.4805 4.80469 40.4688 6.66992 42.7637C7.2168 43.4375 8.23242 43.7402 8.76953 43.7402C10.5176 43.7402 12.2559 41.9824 14.7363 37.7051C17.2559 36.875 20.0195 35.8398 22.4512 35.4395C24.5703 36.5918 27.0508 37.3438 28.7012 37.3438C31.5527 37.3438 31.748 34.2188 30.625 33.1055C29.2676 31.7773 25.3223 32.1582 23.4375 32.4023ZM36.8164 10.2539L27.2461 0.683594C26.8066 0.244141 26.2109 0 25.5859 0H25V12.5H37.5V11.9043C37.5 11.2891 37.2559 10.6934 36.8164 10.2539ZM29.5801 35.1855C29.9805 34.9219 29.3359 34.0234 25.4004 34.3066C29.0234 35.8496 29.5801 35.1855 29.5801 35.1855Z" fill="black"/>
</svg>
