<svg width="60" height="60" viewBox="0 0 60 60" fill="none" xmlns="http://www.w3.org/2000/svg">
<path d="M43.2152 0H16.7848C7.5148 0 0 7.5148 0 16.7848V43.2152C0 52.4852 7.5148 60 16.7848 60H43.2152C52.4852 60 60 52.4852 60 43.2152V16.7848C60 7.5148 52.4852 0 43.2152 0Z" fill="#02B0F4"/>
<path d="M45.0671 20.5389C44.9888 20.2256 44.8769 20.1305 44.6867 20.0354C44.2726 19.834 43.5285 20.0074 43.5285 20.0074C43.5285 20.0074 17.0757 26.7884 15.5203 27.6668C15.1846 27.8571 15.0671 27.9746 15 28.12C14.6811 28.8194 15.4364 29.2167 15.4364 29.2167L21.8258 31.9862C21.8258 31.9862 22.0664 32.0477 22.1615 31.9974C23.7504 31.1917 38.1518 23.8903 38.9631 23.6777C39.0917 23.6497 39.1757 23.7056 39.1477 23.784C38.7281 24.8582 25.9325 34.2353 25.9325 34.2353C25.9325 34.2353 25.8821 34.2857 25.8485 34.3528L25.8318 34.3416L24.6009 40.8261C24.6009 40.8261 24.1533 42.8067 26.3465 40.9884C27.8963 39.7071 29.3733 38.6553 30.1119 38.1462C32.2324 39.9254 34.5095 41.8892 35.4774 42.8907C35.9642 43.3942 36.4006 43.5117 36.7642 43.5341C37.7657 43.59 38.1518 42.5214 38.1518 42.5214C38.1518 42.5214 44.586 24.198 44.9776 21.6971C45.0168 21.4509 45.0503 21.2998 45.0671 21.1264C45.0895 20.8914 45.0951 20.6508 45.0671 20.5389Z" fill="white"/>
</svg>
