<svg width="60" height="60" viewBox="0 0 60 60" fill="none" xmlns="http://www.w3.org/2000/svg">
<path d="M43.2152 0H16.7848C7.5148 0 0 7.5148 0 16.7848V43.2152C0 52.4852 7.5148 60 16.7848 60H43.2152C52.4852 60 60 52.4852 60 43.2152V16.7848C60 7.5148 52.4852 0 43.2152 0Z" fill="#085CCE"/>
<path d="M44.1333 47C40.4296 47 36.7704 46.1169 33.1556 44.3507C29.5407 42.5845 26.2519 40.081 23.2889 36.8403C20.3259 33.5995 18.037 30.0023 16.4222 26.0486C14.8074 22.0949 14 18.0926 14 14.0417C14 13.4583 14.1778 12.9722 14.5333 12.5833C14.8889 12.1944 15.3333 12 15.8667 12H23.0667C23.4815 12 23.8519 12.1539 24.1778 12.4618C24.5037 12.7697 24.6963 13.1343 24.7556 13.5556L25.9111 20.3611C25.9704 20.8796 25.9556 21.3171 25.8667 21.6736C25.7778 22.0301 25.6148 22.338 25.3778 22.5972L21.0667 27.3611C21.6593 28.5602 22.363 29.7188 23.1778 30.8368C23.9926 31.9549 24.8889 33.0324 25.8667 34.0694C26.7852 35.0741 27.7481 36.0058 28.7556 36.8646C29.763 37.7234 30.8296 38.5093 31.9556 39.2222L36.1333 34.6528C36.4 34.3611 36.7481 34.1424 37.1778 33.9965C37.6074 33.8507 38.0296 33.8102 38.4444 33.875L44.5778 35.2361C44.9926 35.3657 45.3333 35.6007 45.6 35.941C45.8667 36.2812 46 36.662 46 37.0833V44.9583C46 45.5417 45.8222 46.0278 45.4667 46.4167C45.1111 46.8056 44.6667 47 44.1333 47ZM19.3778 23.6667L22.3111 20.4583L21.5556 15.8889H17.6C17.7481 17.2176 17.9556 18.5301 18.2222 19.8264C18.4889 21.1227 18.8741 22.4028 19.3778 23.6667ZM35.2889 41.0694C36.4444 41.6204 37.6222 42.0579 38.8222 42.3819C40.0222 42.706 41.2296 42.9167 42.4444 43.0139V38.7361L38.2667 37.8125L35.2889 41.0694Z" fill="white" stroke="white"/>
</svg>
