<svg width="60" height="60" viewBox="0 0 60 60" fill="none" xmlns="http://www.w3.org/2000/svg">
<path d="M43.2152 0H16.7848C7.5148 0 0 7.5148 0 16.7848V43.2152C0 52.4852 7.5148 60 16.7848 60H43.2152C52.4852 60 60 52.4852 60 43.2152V16.7848C60 7.5148 52.4852 0 43.2152 0Z" fill="#01E311"/>
<path d="M44.9329 20.511C42.1913 15.6602 37.0104 12.5103 31.3652 12.3312C25.6415 12.1522 19.7557 15.0392 16.7456 20.5558C14.0041 25.5856 14.2223 31.7624 17.2995 36.6803C16.8911 38.9239 16.4826 41.1619 16.0686 43.3998C18.4632 43.0082 20.8579 42.6166 23.2581 42.2305C24.1197 42.7005 29.8657 45.6994 36.574 43.2208C37.4133 42.9131 43.8978 40.3842 46.2253 33.2618C48.3458 26.7773 45.4196 21.3838 44.9329 20.5166V20.511ZM43.8754 32.2995C41.9955 38.3253 36.5684 40.5297 35.8523 40.8038C29.5804 43.2208 24.1645 39.9142 23.5826 39.5449C22.1223 39.8583 20.6621 40.1716 19.1962 40.4793L19.8844 36.0257C16.9023 31.8799 16.5106 26.4025 18.8829 21.9209C21.3726 17.21 26.3129 14.737 31.1134 14.8266C35.8691 14.9161 40.2723 17.5121 42.6389 21.5684C43.0585 22.2958 45.5875 26.8053 43.8698 32.2939L43.8754 32.2995Z" fill="white"/>
<path d="M26.878 20.8411C27.0571 20.8411 27.2137 20.953 27.2697 21.1208C27.5662 22.016 28.7411 24.7519 28.6516 25.0484C28.5397 25.4009 27.1913 26.436 27.1354 26.9395C27.085 27.4431 28.0865 28.8474 29.1384 29.9496C30.5707 31.449 32.8366 32.4282 33.0212 32.5121C33.2059 32.596 34.6102 30.5147 34.9012 30.386C35.1921 30.2573 38.9295 32.2715 38.9295 32.6184C38.9295 32.9653 38.6385 34.1458 37.9504 35.0857C37.4692 35.7404 36.4118 36.0257 35.6285 36.132C35.6117 36.132 35.5893 36.132 35.5725 36.132C34.9795 36.0369 30.8728 35.5725 27.348 32.0925C24.4778 29.2614 23.6162 26.0443 23.3476 24.7575C23.3476 24.7407 23.342 24.7239 23.342 24.7016C23.3252 24.2708 23.342 22.9951 24.2484 21.8817C24.6009 21.4509 25.2107 21.0425 25.4345 20.9026C25.4905 20.869 25.552 20.8523 25.6192 20.8523H26.8836L26.878 20.8411Z" fill="white"/>
</svg>
